<?xml version="1.0" standalone="no"?>
<!DOCTYPE svg PUBLIC "-//W3C//DTD SVG 20010904//EN"
 "http://www.w3.org/TR/2001/REC-SVG-20010904/DTD/svg10.dtd">
<svg version="1.0" xmlns="http://www.w3.org/2000/svg"
 width="260.000000pt" height="260.000000pt" viewBox="0 0 260.000000 260.000000"
 preserveAspectRatio="xMidYMid meet">
<metadata>
Created by potrace 1.11, written by Peter Selinger 2001-2013
</metadata>
<g transform="translate(0.000000,260.000000) scale(0.100000,-0.100000)"
fill="#000000" stroke="none">
<path d="M1005 2399 c-159 -94 -297 -173 -305 -177 -8 -3 -60 -33 -115 -66
-55 -32 -118 -69 -140 -81 -98 -54 -205 -117 -205 -120 0 -5 259 -152 338
-192 37 -19 40 -29 12 -38 -14 -4 -20 -15 -20 -36 0 -16 -1 -29 -3 -29 -2 0
-88 47 -191 105 -104 58 -190 105 -192 105 -2 0 -4 -278 -4 -617 l0 -618 132
-75 c72 -41 147 -84 167 -95 20 -11 115 -66 211 -122 491 -284 555 -320 560
-313 3 5 5 107 5 228 l0 220 25 -13 c21 -11 29 -11 45 1 20 15 20 12 25 -214
l5 -229 300 174 c165 95 311 179 325 187 64 34 416 239 427 248 10 8 13 143
13 624 0 338 -2 614 -4 614 -2 0 -84 -45 -181 -101 -98 -55 -184 -103 -191
-106 -10 -4 -14 3 -14 25 0 22 -6 32 -21 37 -12 4 -17 11 -13 15 5 5 86 52
179 105 94 53 174 100 178 105 7 6 -94 69 -273 168 -25 14 -57 33 -72 43 -14
11 -29 19 -32 19 -3 0 -51 27 -107 60 -55 33 -103 60 -106 60 -3 0 -17 8 -31
18 -15 11 -52 32 -82 49 -30 17 -122 69 -203 117 -82 47 -149 86 -150 85 -1 0
-132 -77 -292 -170z"/>
</g>
</svg>
