<?xml version="1.0" standalone="no"?>
<!DOCTYPE svg PUBLIC "-//W3C//DTD SVG 20010904//EN"
 "http://www.w3.org/TR/2001/REC-SVG-20010904/DTD/svg10.dtd">
<svg version="1.0" xmlns="http://www.w3.org/2000/svg"
 width="260.000000pt" height="260.000000pt" viewBox="0 0 260.000000 260.000000"
 preserveAspectRatio="xMidYMid meet">
<metadata>
Created by potrace 1.11, written by Peter Selinger 2001-2013
</metadata>
<g transform="translate(0.000000,260.000000) scale(0.100000,-0.100000)"
fill="#000000" stroke="none">
<path d="M1300 2532 l-124 -47 -14 -70 c-19 -103 -15 -100 -72 -62 l-51 34
-221 -38 c-122 -21 -227 -40 -234 -43 -8 -3 -15 -43 -19 -110 l-7 -105 -188
-62 c-152 -49 -189 -65 -194 -81 -2 -12 46 -304 109 -650 112 -620 114 -629
142 -651 27 -21 148 -120 572 -469 106 -87 196 -158 201 -158 5 0 114 58 242
128 128 71 280 154 338 185 58 31 227 123 375 205 l270 150 0 89 c-2 252 -28
829 -39 839 -6 6 -48 26 -94 44 -45 18 -80 35 -77 38 3 3 33 24 68 47 l62 41
-4 234 c-2 129 -4 236 -5 236 0 1 -77 13 -171 27 l-170 25 -36 -20 -36 -20
-123 62 c-106 53 -126 60 -147 51 -37 -17 -44 -13 -31 15 11 24 10 29 -14 48
-14 11 -55 47 -90 79 -36 31 -71 57 -79 56 -8 0 -70 -22 -139 -47z m225 -34
c44 -39 81 -74 83 -77 1 -4 -54 -25 -122 -47 l-123 -41 -86 66 c-47 36 -86 68
-86 71 -1 5 230 96 249 99 3 0 41 -32 85 -71z m-403 -195 l91 -67 -215 -49
-216 -49 -91 72 c-51 40 -89 75 -86 78 3 4 99 23 213 43 114 20 208 37 210 38
1 0 44 -29 94 -66z m686 8 l117 -59 36 21 35 20 162 -23 c90 -13 159 -27 155
-31 -23 -22 -301 -172 -318 -171 -39 2 -265 55 -265 62 0 4 23 19 51 34 28 16
49 30 47 32 -2 2 -46 -14 -98 -35 l-93 -39 -115 76 c-62 42 -110 78 -105 79 4
2 60 23 123 47 63 24 123 44 133 45 9 1 70 -26 135 -58z m524 -296 c1 -102 2
-192 2 -202 1 -11 -47 -47 -137 -105 -76 -48 -142 -88 -146 -88 -6 0 -36 322
-36 389 0 12 286 189 308 191 4 0 8 -83 9 -185z m-938 159 c72 -8 138 -18 146
-20 9 -3 -47 -45 -140 -106 l-155 -101 -135 33 c-74 18 -141 36 -149 40 -9 5
38 35 135 88 82 45 153 82 158 82 5 0 68 -7 140 -16z m-656 -152 c23 -9 42
-20 42 -23 0 -8 -57 -31 -217 -86 l-103 -35 -90 42 c-49 24 -90 46 -90 50 0 4
71 29 158 57 l157 50 50 -20 c28 -10 69 -26 93 -35z m1172 -92 c0 -6 -409
-163 -425 -163 -24 0 -255 97 -248 104 5 4 97 43 207 87 l199 79 133 -51 c74
-28 134 -53 134 -56z m-947 4 c155 -59 165 -64 146 -75 -30 -16 -317 -129
-330 -129 -19 0 -270 122 -263 129 4 4 301 115 322 120 1 1 58 -20 125 -45z
m-610 -70 c48 -25 87 -48 87 -52 0 -5 13 -95 30 -202 16 -107 28 -196 26 -198
-3 -2 -49 19 -105 48 l-100 51 -10 52 c-18 84 -61 331 -61 345 0 18 25 10 133
-44z m1620 -189 c8 -110 12 -203 8 -207 -7 -8 -415 -178 -418 -174 -5 4 -43
366 -43 401 l0 32 213 81 c116 44 215 77 219 73 4 -3 13 -96 21 -206z m-677
129 c65 -26 123 -50 127 -54 5 -4 -79 -40 -185 -79 l-194 -73 -108 51 c-60 28
-106 54 -102 58 6 6 324 141 337 142 3 1 59 -20 125 -45z m-692 -58 c108 -51
115 -56 120 -88 9 -52 46 -351 46 -371 0 -14 -21 -7 -117 42 l-118 59 -29 183
c-15 101 -30 194 -33 207 -3 12 -1 22 5 22 6 0 62 -24 126 -54z m904 -256 c12
-112 19 -207 14 -211 -15 -15 -397 -167 -403 -161 -9 9 -59 350 -59 396 l0 35
158 62 c206 81 256 98 263 90 3 -3 15 -98 27 -211z m-603 113 l110 -54 28
-211 c15 -116 26 -213 23 -215 -5 -5 -233 111 -249 126 -4 4 -18 88 -32 187
-14 98 -27 192 -30 207 -4 25 -3 28 17 21 13 -4 72 -31 133 -61z m1475 -252
l0 -228 -161 -71 c-103 -46 -162 -66 -164 -59 -9 26 -34 452 -27 455 4 2 81
34 172 71 91 38 168 66 173 64 4 -2 7 -107 7 -232z m-1868 -21 c16 -84 57
-364 54 -368 -8 -7 -194 118 -200 134 -6 15 -66 350 -66 367 0 4 46 -16 102
-45 95 -49 103 -56 110 -88z m1482 43 c16 -152 27 -396 19 -404 -6 -6 -95 -47
-199 -93 -123 -54 -191 -79 -195 -72 -10 17 -53 445 -46 452 6 7 397 172 409
173 3 1 9 -25 12 -56z m-1324 -89 c90 -46 110 -60 114 -82 10 -46 54 -407 51
-411 -8 -8 -218 134 -226 153 -4 12 -20 98 -34 191 -14 94 -27 178 -29 188 -2
9 0 17 6 17 5 0 58 -25 118 -56z m882 -190 c9 -76 20 -179 24 -229 l6 -90
-196 -84 c-108 -46 -199 -81 -202 -79 -5 6 -65 460 -61 464 9 9 394 162 402
160 6 -2 18 -65 27 -142z m-469 -74 c19 -129 55 -415 52 -418 -2 -2 -241 142
-253 153 -5 5 -61 395 -62 426 0 26 1 26 128 -40 l127 -66 8 -55z m1302 -42
c3 -57 5 -141 3 -187 l-3 -84 -140 -78 c-77 -43 -145 -78 -151 -78 -11 -1 -17
51 -30 285 l-7 111 94 41 c52 22 119 52 149 65 30 14 60 26 67 26 7 1 13 -34
18 -101z m-1859 -34 c50 -32 52 -35 63 -96 23 -133 42 -279 39 -295 -2 -12
-28 5 -98 63 l-95 80 -27 149 c-37 203 -38 193 20 159 26 -15 70 -42 98 -60z
m1513 -194 c6 -85 11 -171 11 -192 l0 -36 -187 -101 c-102 -56 -189 -99 -191
-96 -6 6 -53 427 -49 432 2 2 91 41 198 88 135 58 196 80 200 72 3 -7 11 -82
18 -167z m-1281 47 c50 -32 92 -63 92 -68 0 -5 11 -97 26 -205 14 -108 23
-198 20 -201 -8 -9 -217 171 -221 191 -7 31 -43 253 -50 314 l-7 54 23 -13
c13 -7 66 -39 117 -72z m837 -99 c3 -24 14 -122 25 -218 19 -166 19 -176 2
-188 -47 -35 -355 -193 -362 -186 -13 14 -73 455 -64 464 9 9 373 168 386 169
4 1 9 -18 13 -41z m-568 -70 c63 -39 117 -76 119 -82 7 -19 62 -471 58 -475
-3 -3 -153 115 -227 181 l-37 33 -25 175 c-13 96 -27 192 -30 214 -7 48 -9 48
142 -46z"/>
</g>
</svg>
