<?xml version="1.0" standalone="no"?>
<!DOCTYPE svg PUBLIC "-//W3C//DTD SVG 20010904//EN"
 "http://www.w3.org/TR/2001/REC-SVG-20010904/DTD/svg10.dtd">
<svg version="1.0" xmlns="http://www.w3.org/2000/svg"
 width="260.000000pt" height="260.000000pt" viewBox="0 0 260.000000 260.000000"
 preserveAspectRatio="xMidYMid meet">
<metadata>
Created by potrace 1.11, written by Peter Selinger 2001-2013
</metadata>
<g transform="translate(0.000000,260.000000) scale(0.100000,-0.100000)"
fill="#000000" stroke="none">
<path d="M1235 2502 c-110 -46 -1000 -500 -1022 -522 -57 -57 -56 -45 -58
-670 -2 -626 -1 -629 54 -686 17 -18 230 -130 537 -283 441 -221 515 -255 554
-255 39 1 117 37 553 255 280 140 520 265 534 279 58 57 57 45 59 665 1 623 0
634 -56 691 -38 40 -1028 534 -1078 539 -20 2 -55 -4 -77 -13z m475 -376 c223
-112 405 -207 405 -212 0 -4 -183 -100 -407 -212 l-408 -204 -405 203 c-223
111 -408 206 -411 210 -4 7 799 418 816 418 3 0 187 -91 410 -203z m-929 -574
l425 -212 0 -510 c0 -281 -3 -510 -6 -509 -3 0 -196 96 -430 213 l-425 214 0
510 c-1 281 2 509 5 508 3 -1 197 -98 431 -214z"/>
</g>
</svg>
